<svg width="48" height="48" viewBox="0 0 48 48" fill="none" xmlns="http://www.w3.org/2000/svg">
<path d="M25.125 7.63636C34.4448 7.63636 42 14.9626 42 24C42 33.0374 34.4448 40.3636 25.125 40.3636" stroke="#00180B"/>
<path d="M22.875 40.3636C13.5552 40.3636 6 33.0374 6 24C6 14.9626 13.5552 7.63637 22.875 7.63637" stroke="#00180B"/>
<path d="M18.648 3L23.421 7.62834L18.648 12.2567" stroke="#00180B"/>
<path d="M29.625 45L24.852 40.3717L29.625 35.7433" stroke="#00180B"/>
<path d="M13.9698 28.1818V27.4148L16.8505 24.2614C17.1886 23.892 17.467 23.571 17.6857 23.2983C17.9045 23.0227 18.0664 22.7642 18.1715 22.5227C18.2795 22.2784 18.3335 22.0227 18.3335 21.7557C18.3335 21.4489 18.2596 21.1832 18.1119 20.9588C17.967 20.7344 17.7681 20.5611 17.5153 20.4389C17.2624 20.3168 16.9783 20.2557 16.663 20.2557C16.3278 20.2557 16.0352 20.3253 15.7852 20.4645C15.538 20.6008 15.3462 20.7926 15.2099 21.0398C15.0763 21.2869 15.0096 21.5767 15.0096 21.9091H14.0039C14.0039 21.3977 14.1218 20.9489 14.3576 20.5625C14.5934 20.1761 14.9144 19.875 15.3207 19.6591C15.7298 19.4432 16.1886 19.3352 16.6971 19.3352C17.2085 19.3352 17.6616 19.4432 18.0565 19.6591C18.4513 19.875 18.761 20.1662 18.9854 20.5327C19.2099 20.8991 19.3221 21.3068 19.3221 21.7557C19.3221 22.0767 19.2638 22.3906 19.1474 22.6974C19.0337 23.0014 18.8349 23.3409 18.5508 23.7159C18.2695 24.0881 17.8789 24.5426 17.3789 25.0795L15.4187 27.1761V27.2443H19.4755V28.1818H13.9698ZM20.8434 26.392V25.5227L24.6786 19.4545H25.3093V20.8011H24.8832L21.9854 25.3864V25.4545H27.1502V26.392H20.8434ZM24.9513 28.1818V26.1278V25.723V19.4545H25.957V28.1818H24.9513ZM29.7699 24.2443V28.1818H28.7642V19.4545H29.7699V22.6591H29.8551C30.0085 22.321 30.2386 22.0525 30.5455 21.8537C30.8551 21.652 31.267 21.5511 31.7812 21.5511C32.2273 21.5511 32.6179 21.6406 32.9531 21.8196C33.2884 21.9957 33.5483 22.267 33.733 22.6335C33.9205 22.9971 34.0142 23.4602 34.0142 24.0227V28.1818H33.0085V24.0909C33.0085 23.571 32.8736 23.169 32.6037 22.8849C32.3366 22.598 31.9659 22.4545 31.4915 22.4545C31.1619 22.4545 30.8665 22.5241 30.6051 22.6633C30.3466 22.8025 30.142 23.0057 29.9915 23.2727C29.8438 23.5398 29.7699 23.8636 29.7699 24.2443Z" fill="#00180B"/>
</svg>
