<svg width="48" height="48" viewBox="0 0 48 48" fill="none" xmlns="http://www.w3.org/2000/svg">
<rect x="3.5" y="26.7667" width="41" height="4.66667" stroke="#00180B"/>
<path d="M4.40001 36.4667C4.40001 36.4667 4.39998 41 24 41C43.6 41 43.6 36.4667 43.6 36.4667" stroke="#00180B"/>
<line x1="3.5" y1="7" x2="3.5" y2="31.9333" stroke="#00180B"/>
<line x1="44.3" y1="7" x2="44.3" y2="31.9333" stroke="#00180B"/>
<line x1="15.5" y1="30.8" x2="15.5" y2="41" stroke="#00180B"/>
<line x1="32.3" y1="30.8" x2="32.3" y2="41" stroke="#00180B"/>
<line x1="13.3" y1="14.9333" x2="13.3" y2="27.4" stroke="#00180B"/>
<line x1="34.3" y1="14.9333" x2="34.3" y2="27.4" stroke="#00180B"/>
<line x1="41.3" y1="14.9333" x2="41.3" y2="27.4" stroke="#00180B"/>
<line x1="7.7" y1="14.9333" x2="7.7" y2="27.4" stroke="#00180B"/>
<line x1="3" y1="15.5667" x2="43.8" y2="15.5667" stroke="#00180B"/>
<line x1="20.3" y1="14.9333" x2="20.3" y2="27.4" stroke="#00180B"/>
<line x1="27.3" y1="14.9333" x2="27.3" y2="27.4" stroke="#00180B"/>
</svg>
