<svg width="48" height="48" viewBox="0 0 48 48" fill="none" xmlns="http://www.w3.org/2000/svg">
<path d="M32.1667 32.6667C32.1667 32.6667 30.7655 26.8333 24 26.8333C17.2345 26.8333 15.8333 32.6667 15.8333 32.6667" stroke="#00180B"/>
<path d="M38 25.6667C38 25.6667 34 16.3333 24 16.3333C14 16.3333 10 25.6667 10 25.6667" stroke="#00180B"/>
<path d="M45 17.5C45 17.5 39 7 24 7C9 7 3 17.5 3 17.5" stroke="#00180B"/>
<path d="M27 38.5C27 40.1569 25.6569 41.5 24 41.5C22.3431 41.5 21 40.1569 21 38.5C21 36.8431 22.3431 35.5 24 35.5C25.6569 35.5 27 36.8431 27 38.5Z" stroke="#00180B"/>
</svg>
